<svg width="360" height="360" viewBox="0 0 360 360" fill="none" xmlns="http://www.w3.org/2000/svg">
<path d="M311.565 258.749C313.684 254.945 315 250.658 315 246.809V113.19C315 109.34 313.685 105.055 311.566 101.25L180 180L311.565 258.749Z" fill="#7F3A86"/>
<path d="M191.686 334.612L303.303 267.803C306.519 265.878 309.441 262.555 311.56 258.75L179.995 180L48.4297 258.751C50.5482 262.555 53.4715 265.879 56.6859 267.803L168.303 334.612C174.733 338.462 185.256 338.462 191.686 334.612Z" fill="#662579"/>
<path d="M311.566 101.25C309.446 97.4441 306.523 94.1208 303.309 92.1961L191.691 25.387C185.261 21.5377 174.739 21.5377 168.309 25.387L56.6912 92.1961C50.2606 96.0445 45 105.492 45 113.19V246.809C45 250.658 46.3156 254.945 48.435 258.75L180 180L311.566 101.25Z" fill="#9A5196"/>
<path d="M180.433 270C130.568 270 90 229.626 90 180C90 130.374 130.568 90 180.433 90C212.015 90 241.509 106.601 257.839 133.445L219.111 156.673C210.929 143.28 196.199 135 180.433 135C155.5 135 135.217 155.186 135.217 180C135.217 204.813 155.5 225 180.433 225C196.157 225 210.849 216.766 219.045 203.436L257.856 226.529C241.528 253.388 212.026 270 180.433 270Z" fill="white"/>
<path fill-rule="evenodd" clip-rule="evenodd" d="M281.251 146.25V157.47H258.749V146.25H247.501V157.47H236.25V168.75H247.501V191.191H236.25V202.5H247.501V213.75H258.749L258.75 202.5H281.251V213.75H292.499V202.5H303.75V191.25H292.499V168.75H303.75V157.47H292.499V146.25H281.251ZM281.251 191.25V168.75H258.749V191.191L281.251 191.25Z" fill="white"/>
</svg>
